<mxfile host="65bd71144e">
    <diagram id="Ogp230cFNuVrEqbx9-aM" name="Visão-Geral-Domínio">
        <mxGraphModel dx="1141" dy="801" grid="1" gridSize="10" guides="1" tooltips="1" connect="1" arrows="1" fold="1" page="1" pageScale="1" pageWidth="850" pageHeight="1100" math="0" shadow="0">
            <root>
                <mxCell id="0"/>
                <mxCell id="1" parent="0"/>
                <mxCell id="2" value="Feedtrack GP" style="shape=umlFrame;whiteSpace=wrap;html=1;pointerEvents=0;recursiveResize=0;container=1;collapsible=0;width=160;" parent="1" vertex="1">
                    <mxGeometry x="350" y="200" width="580" height="840" as="geometry"/>
                </mxCell>
                <mxCell id="15" value="" style="shape=ellipse;container=1;horizontal=1;horizontalStack=0;resizeParent=1;resizeParentMax=0;resizeLast=0;html=1;dashed=0;collapsible=0;" parent="2" vertex="1">
                    <mxGeometry x="100" y="180" width="430" height="110" as="geometry"/>
                </mxCell>
                <mxCell id="16" value="Gerenciar Produtos" style="html=1;strokeColor=none;fillColor=none;align=center;verticalAlign=middle;rotatable=0;whiteSpace=wrap;" parent="15" vertex="1">
                    <mxGeometry y="32.35235294117647" width="430" height="45.29411764705882" as="geometry"/>
                </mxCell>
                <mxCell id="17" value="" style="shape=ellipse;container=1;horizontal=1;horizontalStack=0;resizeParent=1;resizeParentMax=0;resizeLast=0;html=1;dashed=0;collapsible=0;" parent="2" vertex="1">
                    <mxGeometry x="100" y="50" width="430" height="110" as="geometry"/>
                </mxCell>
                <mxCell id="18" value="Registro de Cliente" style="html=1;strokeColor=none;fillColor=none;align=center;verticalAlign=middle;rotatable=0;whiteSpace=wrap;" parent="17" vertex="1">
                    <mxGeometry y="25.88235294117647" width="430" height="45.29411764705882" as="geometry"/>
                </mxCell>
                <mxCell id="19" value="" style="shape=ellipse;container=1;horizontal=1;horizontalStack=0;resizeParent=1;resizeParentMax=0;resizeLast=0;html=1;dashed=0;collapsible=0;" parent="2" vertex="1">
                    <mxGeometry x="90" y="310" width="430" height="110" as="geometry"/>
                </mxCell>
                <mxCell id="20" value="Registro de Feedback" style="html=1;strokeColor=none;fillColor=none;align=center;verticalAlign=middle;rotatable=0;whiteSpace=wrap;" parent="19" vertex="1">
                    <mxGeometry x="10" y="32.35" width="410" height="45.29" as="geometry"/>
                </mxCell>
                <mxCell id="21" value="" style="shape=ellipse;container=1;horizontal=1;horizontalStack=0;resizeParent=1;resizeParentMax=0;resizeLast=0;html=1;dashed=0;collapsible=0;" parent="2" vertex="1">
                    <mxGeometry x="90" y="440" width="430" height="110" as="geometry"/>
                </mxCell>
                <mxCell id="22" value="Registro de Forrmulário" style="html=1;strokeColor=none;fillColor=none;align=center;verticalAlign=middle;rotatable=0;whiteSpace=wrap;" parent="21" vertex="1">
                    <mxGeometry y="25.88235294117647" width="430" height="45.29411764705882" as="geometry"/>
                </mxCell>
                <mxCell id="23" value="" style="shape=ellipse;container=1;horizontal=1;horizontalStack=0;resizeParent=1;resizeParentMax=0;resizeLast=0;html=1;dashed=0;collapsible=0;" parent="2" vertex="1">
                    <mxGeometry x="80" y="570" width="430" height="110" as="geometry"/>
                </mxCell>
                <mxCell id="24" value="Observações" style="html=1;strokeColor=none;fillColor=none;align=center;verticalAlign=middle;rotatable=0;whiteSpace=wrap;" parent="23" vertex="1">
                    <mxGeometry y="25.88235294117647" width="430" height="45.29411764705882" as="geometry"/>
                </mxCell>
                <mxCell id="10" value="" style="shape=ellipse;container=1;horizontal=1;horizontalStack=0;resizeParent=1;resizeParentMax=0;resizeLast=0;html=1;dashed=0;collapsible=0;" parent="2" vertex="1">
                    <mxGeometry x="80" y="700" width="430" height="110" as="geometry"/>
                </mxCell>
                <mxCell id="11" value="Gerenciar Usuário" style="html=1;strokeColor=none;fillColor=none;align=center;verticalAlign=middle;rotatable=0;whiteSpace=wrap;" parent="10" vertex="1">
                    <mxGeometry y="25.88235294117647" width="430" height="45.294117647058826" as="geometry"/>
                </mxCell>
                <mxCell id="3" value="Administrador&lt;div&gt;&lt;br&gt;&lt;/div&gt;" style="shape=umlActor;verticalLabelPosition=bottom;verticalAlign=top;html=1;" parent="1" vertex="1">
                    <mxGeometry x="180" y="670" width="30" height="60" as="geometry"/>
                </mxCell>
                <mxCell id="4" value="&lt;div&gt;Funcionários&lt;/div&gt;" style="shape=umlActor;verticalLabelPosition=bottom;verticalAlign=top;html=1;" parent="1" vertex="1">
                    <mxGeometry x="200" y="380" width="30" height="60" as="geometry"/>
                </mxCell>
                <mxCell id="7" value="Usuário&lt;div&gt;&lt;br&gt;&lt;/div&gt;" style="shape=umlActor;verticalLabelPosition=bottom;verticalAlign=top;html=1;" parent="1" vertex="1">
                    <mxGeometry x="50" y="540" width="30" height="60" as="geometry"/>
                </mxCell>
                <mxCell id="8" style="edgeStyle=none;html=1;exitX=0.5;exitY=0.5;exitDx=0;exitDy=0;exitPerimeter=0;entryX=0.5;entryY=0.5;entryDx=0;entryDy=0;entryPerimeter=0;endArrow=classic;endFill=1;" parent="1" source="4" target="7" edge="1">
                    <mxGeometry relative="1" as="geometry"/>
                </mxCell>
                <mxCell id="9" style="edgeStyle=none;html=1;exitX=0.5;exitY=0.5;exitDx=0;exitDy=0;exitPerimeter=0;entryX=0.5;entryY=0.5;entryDx=0;entryDy=0;entryPerimeter=0;endArrow=classic;endFill=1;" parent="1" source="3" target="7" edge="1">
                    <mxGeometry relative="1" as="geometry">
                        <mxPoint x="215" y="420" as="sourcePoint"/>
                        <mxPoint x="75" y="580" as="targetPoint"/>
                    </mxGeometry>
                </mxCell>
                <mxCell id="30" style="edgeStyle=none;html=1;exitX=0;exitY=0.5;exitDx=0;exitDy=0;entryX=0.5;entryY=0.5;entryDx=0;entryDy=0;entryPerimeter=0;endArrow=none;endFill=0;" parent="1" source="11" target="3" edge="1">
                    <mxGeometry relative="1" as="geometry"/>
                </mxCell>
                <mxCell id="31" style="edgeStyle=none;html=1;exitX=0;exitY=0.5;exitDx=0;exitDy=0;entryX=0.5;entryY=0.5;entryDx=0;entryDy=0;entryPerimeter=0;endArrow=none;endFill=0;" parent="1" source="18" target="4" edge="1">
                    <mxGeometry relative="1" as="geometry"/>
                </mxCell>
                <mxCell id="32" style="edgeStyle=none;html=1;entryX=0.5;entryY=0.5;entryDx=0;entryDy=0;entryPerimeter=0;endArrow=none;endFill=0;exitX=0;exitY=0.5;exitDx=0;exitDy=0;" parent="1" source="16" target="4" edge="1">
                    <mxGeometry relative="1" as="geometry"/>
                </mxCell>
                <mxCell id="33" style="edgeStyle=none;html=1;entryX=0.5;entryY=0.5;entryDx=0;entryDy=0;entryPerimeter=0;exitX=0;exitY=0.75;exitDx=0;exitDy=0;endArrow=none;endFill=0;" parent="1" source="18" target="3" edge="1">
                    <mxGeometry relative="1" as="geometry"/>
                </mxCell>
                <mxCell id="34" style="edgeStyle=none;html=1;entryX=0.5;entryY=0.5;entryDx=0;entryDy=0;entryPerimeter=0;endArrow=none;endFill=0;exitX=0;exitY=0.5;exitDx=0;exitDy=0;" parent="1" source="19" target="4" edge="1">
                    <mxGeometry relative="1" as="geometry">
                        <mxPoint x="440" y="570" as="sourcePoint"/>
                    </mxGeometry>
                </mxCell>
                <mxCell id="35" style="edgeStyle=none;html=1;entryX=0.5;entryY=0.5;entryDx=0;entryDy=0;entryPerimeter=0;exitX=0;exitY=0.5;exitDx=0;exitDy=0;endArrow=none;endFill=0;" parent="1" source="19" target="3" edge="1">
                    <mxGeometry relative="1" as="geometry"/>
                </mxCell>
                <mxCell id="38" style="edgeStyle=none;html=1;entryX=0.5;entryY=0.5;entryDx=0;entryDy=0;entryPerimeter=0;exitX=0;exitY=0.5;exitDx=0;exitDy=0;endArrow=none;endFill=0;" parent="1" source="16" target="3" edge="1">
                    <mxGeometry relative="1" as="geometry"/>
                </mxCell>
                <mxCell id="39" style="edgeStyle=none;html=1;exitX=0;exitY=0.75;exitDx=0;exitDy=0;endArrow=none;endFill=0;" parent="1" source="22" edge="1">
                    <mxGeometry relative="1" as="geometry">
                        <mxPoint x="216" y="410" as="targetPoint"/>
                    </mxGeometry>
                </mxCell>
                <mxCell id="40" style="edgeStyle=none;html=1;entryX=0.5;entryY=0.5;entryDx=0;entryDy=0;entryPerimeter=0;exitX=0;exitY=0.5;exitDx=0;exitDy=0;endArrow=none;endFill=0;" parent="1" source="24" target="3" edge="1">
                    <mxGeometry relative="1" as="geometry"/>
                </mxCell>
            </root>
        </mxGraphModel>
    </diagram>
    <diagram id="60QMo4iGGCd3Ksd6Dm8v" name="Subdomínio-Gestão_Clientes">
        <mxGraphModel dx="1141" dy="801" grid="1" gridSize="10" guides="1" tooltips="1" connect="1" arrows="1" fold="1" page="1" pageScale="1" pageWidth="850" pageHeight="1100" math="0" shadow="0">
            <root>
                <mxCell id="0"/>
                <mxCell id="1" parent="0"/>
                <mxCell id="TLDfQnZ_Xopkt6newSEb-1" value="&lt;div&gt;Funcionários&lt;/div&gt;" style="shape=umlActor;verticalLabelPosition=bottom;verticalAlign=top;html=1;" parent="1" vertex="1">
                    <mxGeometry x="130" y="230" width="30" height="60" as="geometry"/>
                </mxCell>
                <mxCell id="9u6-SMGlgM0C-FZWu7tn-1" value="Administrador&lt;div&gt;&lt;br&gt;&lt;/div&gt;" style="shape=umlActor;verticalLabelPosition=bottom;verticalAlign=top;html=1;" parent="1" vertex="1">
                    <mxGeometry x="130" y="460" width="30" height="60" as="geometry"/>
                </mxCell>
                <mxCell id="BPRLt1gvi2N8AYVLfHpz-1" value="Subdomínio Gestão_Clien&lt;span style=&quot;background-color: transparent;&quot;&gt;tes&lt;/span&gt;" style="shape=umlFrame;whiteSpace=wrap;html=1;pointerEvents=0;recursiveResize=0;container=1;collapsible=0;width=190;height=30;" parent="1" vertex="1">
                    <mxGeometry x="210" y="90" width="860" height="610" as="geometry"/>
                </mxCell>
                <mxCell id="BPRLt1gvi2N8AYVLfHpz-4" value="" style="shape=ellipse;container=1;horizontal=1;horizontalStack=0;resizeParent=1;resizeParentMax=0;resizeLast=0;html=1;dashed=0;collapsible=0;" parent="BPRLt1gvi2N8AYVLfHpz-1" vertex="1">
                    <mxGeometry x="20" y="240" width="260" height="90" as="geometry"/>
                </mxCell>
                <mxCell id="BPRLt1gvi2N8AYVLfHpz-5" value="Registro de Cliente" style="html=1;strokeColor=none;fillColor=none;align=center;verticalAlign=middle;rotatable=0;whiteSpace=wrap;" parent="BPRLt1gvi2N8AYVLfHpz-4" vertex="1">
                    <mxGeometry x="20" y="26.47" width="240" height="37.06" as="geometry"/>
                </mxCell>
                <mxCell id="BPRLt1gvi2N8AYVLfHpz-27" value="" style="shape=ellipse;container=1;horizontal=1;horizontalStack=0;resizeParent=1;resizeParentMax=0;resizeLast=0;html=1;dashed=0;collapsible=0;" parent="BPRLt1gvi2N8AYVLfHpz-1" vertex="1">
                    <mxGeometry x="370" y="70" width="260" height="90" as="geometry"/>
                </mxCell>
                <mxCell id="BPRLt1gvi2N8AYVLfHpz-28" value="Criar cliente" style="html=1;strokeColor=none;fillColor=none;align=center;verticalAlign=middle;rotatable=0;whiteSpace=wrap;" parent="BPRLt1gvi2N8AYVLfHpz-27" vertex="1">
                    <mxGeometry y="26.466470588235296" width="260" height="37.05882352941176" as="geometry"/>
                </mxCell>
                <mxCell id="BPRLt1gvi2N8AYVLfHpz-29" value="" style="shape=ellipse;container=1;horizontal=1;horizontalStack=0;resizeParent=1;resizeParentMax=0;resizeLast=0;html=1;dashed=0;collapsible=0;" parent="BPRLt1gvi2N8AYVLfHpz-1" vertex="1">
                    <mxGeometry x="370" y="200" width="260" height="90" as="geometry"/>
                </mxCell>
                <mxCell id="BPRLt1gvi2N8AYVLfHpz-30" value="Recuperar cliente" style="html=1;strokeColor=none;fillColor=none;align=center;verticalAlign=middle;rotatable=0;whiteSpace=wrap;" parent="BPRLt1gvi2N8AYVLfHpz-29" vertex="1">
                    <mxGeometry y="26.466470588235296" width="260" height="37.05882352941176" as="geometry"/>
                </mxCell>
                <mxCell id="BPRLt1gvi2N8AYVLfHpz-31" value="" style="shape=ellipse;container=1;horizontal=1;horizontalStack=0;resizeParent=1;resizeParentMax=0;resizeLast=0;html=1;dashed=0;collapsible=0;" parent="BPRLt1gvi2N8AYVLfHpz-1" vertex="1">
                    <mxGeometry x="360" y="310" width="260" height="90" as="geometry"/>
                </mxCell>
                <mxCell id="BPRLt1gvi2N8AYVLfHpz-32" value="Atualizar cliente" style="html=1;strokeColor=none;fillColor=none;align=center;verticalAlign=middle;rotatable=0;whiteSpace=wrap;" parent="BPRLt1gvi2N8AYVLfHpz-31" vertex="1">
                    <mxGeometry y="26.466470588235296" width="260" height="37.05882352941176" as="geometry"/>
                </mxCell>
                <mxCell id="BPRLt1gvi2N8AYVLfHpz-33" value="" style="shape=ellipse;container=1;horizontal=1;horizontalStack=0;resizeParent=1;resizeParentMax=0;resizeLast=0;html=1;dashed=0;collapsible=0;" parent="BPRLt1gvi2N8AYVLfHpz-1" vertex="1">
                    <mxGeometry x="360" y="420" width="260" height="90" as="geometry"/>
                </mxCell>
                <mxCell id="BPRLt1gvi2N8AYVLfHpz-34" value="Deletar cliente" style="html=1;strokeColor=none;fillColor=none;align=center;verticalAlign=middle;rotatable=0;whiteSpace=wrap;" parent="BPRLt1gvi2N8AYVLfHpz-33" vertex="1">
                    <mxGeometry y="26.466470588235296" width="260" height="37.05882352941176" as="geometry"/>
                </mxCell>
                <mxCell id="BPRLt1gvi2N8AYVLfHpz-35" value="&amp;lt;&amp;lt;extend&amp;gt;&amp;gt;" style="html=1;verticalAlign=bottom;labelBackgroundColor=none;endArrow=open;endFill=0;dashed=1;exitX=0;exitY=0.75;exitDx=0;exitDy=0;entryX=0.723;entryY=0.067;entryDx=0;entryDy=0;entryPerimeter=0;" parent="BPRLt1gvi2N8AYVLfHpz-1" source="BPRLt1gvi2N8AYVLfHpz-28" target="BPRLt1gvi2N8AYVLfHpz-4" edge="1">
                    <mxGeometry width="160" relative="1" as="geometry">
                        <mxPoint x="130" y="250" as="sourcePoint"/>
                        <mxPoint x="290" y="250" as="targetPoint"/>
                    </mxGeometry>
                </mxCell>
                <mxCell id="BPRLt1gvi2N8AYVLfHpz-36" value="&amp;lt;&amp;lt;extend&amp;gt;&amp;gt;" style="html=1;verticalAlign=bottom;labelBackgroundColor=none;endArrow=open;endFill=0;dashed=1;exitX=0;exitY=0.5;exitDx=0;exitDy=0;entryX=0.854;entryY=0.167;entryDx=0;entryDy=0;entryPerimeter=0;" parent="BPRLt1gvi2N8AYVLfHpz-1" source="BPRLt1gvi2N8AYVLfHpz-29" target="BPRLt1gvi2N8AYVLfHpz-4" edge="1">
                    <mxGeometry width="160" relative="1" as="geometry">
                        <mxPoint x="320" y="134" as="sourcePoint"/>
                        <mxPoint x="218" y="256" as="targetPoint"/>
                    </mxGeometry>
                </mxCell>
                <mxCell id="BPRLt1gvi2N8AYVLfHpz-37" value="&amp;lt;&amp;lt;extend&amp;gt;&amp;gt;" style="html=1;verticalAlign=bottom;labelBackgroundColor=none;endArrow=open;endFill=0;dashed=1;exitX=0;exitY=0.5;exitDx=0;exitDy=0;entryX=0.969;entryY=0.733;entryDx=0;entryDy=0;entryPerimeter=0;" parent="BPRLt1gvi2N8AYVLfHpz-1" source="BPRLt1gvi2N8AYVLfHpz-32" target="BPRLt1gvi2N8AYVLfHpz-4" edge="1">
                    <mxGeometry width="160" relative="1" as="geometry">
                        <mxPoint x="330" y="144" as="sourcePoint"/>
                        <mxPoint x="228" y="266" as="targetPoint"/>
                    </mxGeometry>
                </mxCell>
                <mxCell id="BPRLt1gvi2N8AYVLfHpz-38" value="&amp;lt;&amp;lt;extend&amp;gt;&amp;gt;" style="html=1;verticalAlign=bottom;labelBackgroundColor=none;endArrow=open;endFill=0;dashed=1;exitX=0;exitY=0.5;exitDx=0;exitDy=0;entryX=0.85;entryY=0.9;entryDx=0;entryDy=0;entryPerimeter=0;" parent="BPRLt1gvi2N8AYVLfHpz-1" source="BPRLt1gvi2N8AYVLfHpz-34" target="BPRLt1gvi2N8AYVLfHpz-4" edge="1">
                    <mxGeometry width="160" relative="1" as="geometry">
                        <mxPoint x="340" y="154" as="sourcePoint"/>
                        <mxPoint x="238" y="276" as="targetPoint"/>
                    </mxGeometry>
                </mxCell>
                <mxCell id="BPRLt1gvi2N8AYVLfHpz-39" style="edgeStyle=none;html=1;entryX=0.5;entryY=0.5;entryDx=0;entryDy=0;entryPerimeter=0;exitX=0;exitY=0.5;exitDx=0;exitDy=0;endArrow=none;endFill=0;" parent="1" source="BPRLt1gvi2N8AYVLfHpz-4" target="TLDfQnZ_Xopkt6newSEb-1" edge="1">
                    <mxGeometry relative="1" as="geometry"/>
                </mxCell>
                <mxCell id="BPRLt1gvi2N8AYVLfHpz-40" style="edgeStyle=none;html=1;entryX=0.5;entryY=0.5;entryDx=0;entryDy=0;entryPerimeter=0;exitX=0;exitY=0.5;exitDx=0;exitDy=0;endArrow=none;endFill=0;" parent="1" source="BPRLt1gvi2N8AYVLfHpz-4" target="9u6-SMGlgM0C-FZWu7tn-1" edge="1">
                    <mxGeometry relative="1" as="geometry">
                        <mxPoint x="240" y="385" as="sourcePoint"/>
                        <mxPoint x="155" y="270" as="targetPoint"/>
                    </mxGeometry>
                </mxCell>
            </root>
        </mxGraphModel>
    </diagram>
    <diagram id="KkEZVV5sevTK0r5oRL3t" name="Subdomínio-Produtos">
        <mxGraphModel dx="1141" dy="801" grid="1" gridSize="10" guides="1" tooltips="1" connect="1" arrows="1" fold="1" page="1" pageScale="1" pageWidth="850" pageHeight="1100" math="0" shadow="0">
            <root>
                <mxCell id="0"/>
                <mxCell id="1" parent="0"/>
            </root>
        </mxGraphModel>
    </diagram>
    <diagram id="NPJSrmPh0s8holYXsfMD" name="Subdomínio-Feedback">
        <mxGraphModel dx="1141" dy="801" grid="1" gridSize="10" guides="1" tooltips="1" connect="1" arrows="1" fold="1" page="1" pageScale="1" pageWidth="850" pageHeight="1100" math="0" shadow="0">
            <root>
                <mxCell id="0"/>
                <mxCell id="1" parent="0"/>
            </root>
        </mxGraphModel>
    </diagram>
    <diagram id="u0Pys8OKiqK_ye9eLoKc" name="Subdomínio-Gestão_Funcionários">
        <mxGraphModel dx="1141" dy="801" grid="1" gridSize="10" guides="1" tooltips="1" connect="1" arrows="1" fold="1" page="1" pageScale="1" pageWidth="850" pageHeight="1100" math="0" shadow="0">
            <root>
                <mxCell id="0"/>
                <mxCell id="1" parent="0"/>
            </root>
        </mxGraphModel>
    </diagram>
</mxfile>